<svg xmlns="http://www.w3.org/2000/svg" viewBox="-800 1472 1600 640"><path fill="#FFF" d="M-244.8 1836.4h-40.7v70.4h14.2v-27.3h26.6c23.1 0 28-11.8 28-21.6-.2-9.8-5.1-21.5-28.1-21.5zm-26.6 13.3h24.5c14.9 0 16.1 4 16.1 8.3 0 4.3-1.3 8.2-16.1 8.2h-24.5v-16.5zm105.5 58.7c-23.3 0-36.1-11.1-36.1-31.1v-40.9h14.2v40.9c0 12.2 7.2 18.2 22 18.2s22-5.9 22-18.2v-40.9h14.2v40.9c0 20.1-13 31.1-36.3 31.1zm127.6-22.8c0-8.5-4.4-13.3-8.5-16 3.2-2.5 6.3-6.4 6.3-13.3 0-19.9-21.1-19.9-28.1-19.9h-40.2v70.4h36c11.1.1 34.5.1 34.5-21.2zm-35-36.2c14 0 18.7 1 18.7 7.1 0 2 0 7.3-16 7.3h-24v-14.4h21.3zm5.5 44.2h-26.8v-16.9H-67c14.3 0 14.3 6.2 14.3 8.8.1 4.8-2.6 8.1-15.1 8.1zm112.7 13.3h-62.7v-70.4h14.2v57.1H45v13.3h-.1zm14-70.5H73v70.4H58.9v-70.4zm70.8 72c-29.3 0-39.8-19-39.8-36.7 0-22.8 15.2-36.9 39.7-36.9 17.2 0 30.8 7.6 36.4 20.2l1.3 2.9-12.6 5.8-1.3-3c-3.7-8.6-11.6-13-23.7-13-16.6 0-25.4 8.6-25.4 25 0 14 9.7 22.4 26.1 22.4 11.2 0 19.1-4.3 23.9-13.3l1.5-2.7 12.6 6.2-1.5 2.9c-7.1 13.6-19.2 20.2-37.2 20.2zm55-72h14.2v70.4h-14.2v-70.4zm104.9 49.2c0 16.8-19.1 22.9-35.3 22.9-22.3 0-30.8-9.5-36.5-15.8l-2.2-2.5 2.5-2.2 8.6-7.4 2.1 2.8c3.5 4.7 8.8 11.8 26.5 11.8 2.1 0 20.1-.2 20.1-9.5 0-5.7-8.7-7-22-8.2-15.1-1.4-33.8-3.2-33.8-20.1 0-8.4 4.3-22.4 33.2-22.4 22.2 0 31.9 11.1 34.3 14.5l1.7 2.5-10.4 8.5-2.5-2.9c-2.7-3.1-8.3-9.5-23.4-9.5-7 0-18.7 1.1-18.7 8.2 0 5.4 7.9 6.5 20.9 7.7 15.5 1.1 34.9 2.9 34.9 21.6zm-415.2 71.3h17.3v70.4h-13.5V1982l-19.8 45.4h-10.7l-20.1-45.5v45.5H-186V1957h17.1l21.6 49.1 21.7-49.2zm52.8 57.2h50.4v13.3H-87V1957h63.5v13.3h-49.3v14h41.2v13.3h-41.2v16.5zM29 1956.9H-5.7v70.4h32.3c25.4 0 39.9-13 39.9-35.8 0-21.3-14.3-34.6-37.5-34.6zm-1.1 57.2H8.4v-43.9H29c10.5 0 23.1 3.6 23.1 21.1.1 15.1-8.1 22.8-24.2 22.8zm54.8-57.2h14.2v70.4H82.7v-70.4zm61.4 0l-36.2 70.4h15.9l8.4-16.6h37.3l8.3 16.6h16l-36.1-70.4h-13.6zm-5.2 40.6l12-24 12 24h-24z"/><path fill="#fff" d="M144 1792l-32.4-19.1c6.5.8 12.1-2 17.4-5.8l9.8 12-6.1-14.9c6.5-5.1 11.9-10.7 18.6-10.8 18.2-.5 5.5 21.4 12.2 21.5 7.5.1 15.5-24.4-2.3-35.1-18.5-11.2-34.6 4.9-47.7 2.2l49.1-21.9H90.9l-2.5-4.8c13 5.8 22.2.4 28.4-5.7l20.4 2.9-16.9-6.6c4-4.2 7.5-7.5 11.7-5.9 6.1 2.3 9.6 7.6 20.1 7.8 17.8.2 30.6-31.3 7.2-45 1.8 22.5-8.7 23.6-26.9 11.7l6.3-10.2-9.4 8.2c-17.5-7.8-26 7.7-33.3 12.6-7.4 4.9-14-5-23 6.9 13.3-4.4 20.1 8.3 28.9 0-3.6 22.5-16.6-6.9-29.5 4.4 11.2.9 17.1 10.8 25.9 10.8 16.4 0 1.8-31.6 24.9-31.6l-3.8-2.4c13.1-1.3 13.7 11.9 33.5 12.1 2 3-5.2 3.2-10.2 1.5-.9 4.2 26.9 13.6 20.2-17.8 8.7 4.7 6.8 24.5-1.3 32-1.6 1.5-3.1 2.2-4 .6-2.2-3.4 3.4-3.3 5.1-8.4-6.2 5.4-16.7 4.9-23.9-1.7-7.2-6.7-18-14.8-22.6-.8-4.6 14.1-8.5 20.7-17 20.8-11.7.2-24.1-19.4-37.1-8.6 24.8 2.3 30.6 41.7 52.5 42.3 17 0 20.8-7.5 31.8-7.5 11.1 0 22.6 5.8 22.6 20.4 0 8.8-4.6 13.7-4.6 13.7s3.4-7.2 1.7-16.3c-1.6-8.7-9-14-18.8-14-13.7 0-24.6 22.3-39.8 22.3-30.3 0-38.1-58.4-69.9-49.5 23.3 15.8 25.9 41 38.5 50.8 12.7 9.8 27.9 5.8 36.3 13.2 3.4 3 4.9 8.1 6 13.6h-2.9c-1-2.8-2.6-5.5-5.1-7.7-7.2-7.6-29.1-4.3-39.1-15.1-10.1-10.8-17.4-43.4-37.1-48.4 17.2 11.1 21.1 39.5 33.4 53.5s28.6 6.6 36 13.9c1.3 1.3 2.4 2.5 3.4 3.8H93.1c-1.3-.2-2.6-.4-4.1-.4-2.3 0-4.6.2-6.9.4H62.6c-2.6-.8-4.9-2.1-7.1-4.3-9.7-10.3-8.9-21.2-8.1-34 1.9 12 4.2 39.8 24.9 36.6-26-8.9-10.9-53.5-42.7-65-3.4-1.3-2.3-12.5 6.5-14.1-17.2 3.3-17.1-3-4.9-15.6-7.5 4.8-15.6 3.4-17.5 8.8 0 0 14 22.1 14 26.4 0 4.3-9.3 21.8-10.3 22.3-3.4 1.9-14.8 2-17.7 1.1-3-.9-6.5-10.4-5.1-13.3 2.2-4.6 19.6-8.4 20-15.2.2-5.4-7.1-5.9-6.8-3.1 4.1 1.4 6 7.6-6.3 10.4l2.7-4.4s-9.1 7.3-9.6 7.6-2.6.5-3.9.1c-1.3-.4-14.5-6.8-12.2-13 0 0 4 1.7 14 1.7 10.1 0 10.9-4.3 10.9-4.3s-5.4 1.3-10.8 1.3c-5.5 0-10.8-1.3-10.8-1.3-4.3-1 .2-6.5 1.8-6.5H-6c.7 0 1.5-1.4.1-1.6-1 0-7.6-.2-8.2-1.8-.9-2.7-2.7-20.2-2.7-20.2s2.3-5.4.4-7.2-2.7-.9-2.7-.9c4.3 24.1-14.2 39.1-24.7 36.2l-1.3-.2c2.3 1.8 5.4 3.4 9.4 4.7-19.7 4.1-27.8-7.9-31-15.1-1.7.9-1.8 5.6-1.6 8.6-4.1-4.5-6.6-11.4-2.8-16.4-5 2.4-5.2 3.2-5.2 3.2.2-4.1 7.5-6.8 11.2-11.7 3.6-4.9 2.9-12.2-4.9-15.4.5 7.5-3.1 12.5-10.7 15-7.3 2.4-6.1-4.1-12.8-2.7 11.1 2.5 10.4 17.8 21.5 24.1-14.8-3.4-17.3-23.5-35.3-21.5 10.3-14.7 26.6-2 33.4-12.2-17.5 4-29.4-10.8-31.4-27-3.1-24.7-23.9-12.6-23.6-24.7 10.5 4.7 33.8-13.3 40.7 7.2 7.2 21.4 21.8 30.2 34.9 20.3l-57-57.9 7.2 24.3c-14.9 2.9-32.8-6-23.1-26.8-14-6.5-32.8 16.9-15.5 35.3 7.9 8.5 27.4 5.4 32.5 22.7l-18.5-1.5 19 4.9 5.7 16.8-44.3-21.6 27.2 31.7c-15.8 8.4-19.9-15.7-40.5-15.1-14.4.3-30.5 15.1-23.8 32.5 21.5-13 28.4-3.8 37.6 5.4l-13.3 7.1 15.7-4.8c5.6 5.2 12.4 9.5 23.7 8.7 18.6-1.4 34.9-7.4 39.2-2.3 3.2 3.8-.5 6.1-7.2 6.1h-88.9l35.6 19.1c-3.4 2.7-13.3 14.8-20.2 14.8s-22.2-10.5-26.3 7.9c15.8-2.7 23.9 31.9 57.2 4.3l-15.5 25.7h-73.3v8.9h440.3v-8.9l-76.2-.1zm-17.3-104.7c8.2 3.5-17.1 28.1-24.9 27.3 16.1-4.8 16.7-30.8 24.9-27.3zm3.3 72.8c5.8-15.2 23.7-21.8 31.1-8.5.4.6-.2 1.2-1.5-.1-9.3-9.3-21.2-.5-28.6 9.2-1.1 1.4-1.4.6-1-.6zm-259.9-163.4c-4.7 8.2-3.8 23 15 27.4-31.5 7.1-30.6-28.6-15-27.4zm-25.5 97.1c-14.4-7.9-27.4 1.5-27.4 1.5 4.4-14.4 31.2-15.5 27.4-1.5zm6.4-5.7c-2.2-2.9-4-5.4-6.4-6.2-3.1-1-6.4-.9-9.4-.7-3.7.2-6.9.3-7.9-2-.6-1.5 0-3.1 2-4.5s4.9-2.3 7.8-2.5c3.3-.2 6.1.5 7.9 2.2 1.8 1.6 2.6 1.7 2.9 1.6.5-.2.3-1.3.3-2-.1-.5-.2-.9.2-.9 5.2.9 7.7 4 10.3 7.2 4.4 5.4 11.2 13.3 27.8 10.5-4.2 14.9-27.9 10.5-35.5-2.7zm13.4 20.1c-.9-6.5 31.5-11.2 31.7-2 .2 8-30.8 9.1-31.7 2zm167.1 39.7c-10.8 23.1 15.7 37.5 20.7 42.1.5.5 1.2 1.3 1.7 2h-9c-2.6-5.5-5.4-9.7-8.6-11.1 2.2 3.2 3.8 7.1 5.2 11.1h-4.2c-6.1-12.2-16.3-21.5-5.8-44.1zm-2.6 44.1h-3.8l-4.4-12.6c3.4 1.7 6 6.5 8.2 12.6zm-10.8 0h-4.2c1.8-6.9 2.7-14.3-1.6-23.2 6.9 5.8 6.8 14.5 5.8 23.2zm-7.4 0H7c1.6-5.4 2-11.2-2.5-19.4 6.8 5.7 7.3 12.6 6.2 19.4zm-27.3 0c2.2-9.5-1.7-12.4-9.8-21.1 12.1 8.3 16.4 14 15.6 21.1h-5.8zm9.7-16.6c6.1 7 7.8 12.1 7.9 16.7h-3.6c.1-4.6-.7-9.8-4.3-16.7zm-.6-16.5c5.2 0 15.3-.3 15.6-.3 1.4 0 1.7.5 1.7.7 0 .5-.7 3.2-1.7 3.4-.1.1-9.9 2.3-15.6 2-5.8.3-15.5-2-15.6-2-1-.3-1.8-2.9-1.7-3.4 0-.2.3-.7 1.7-.7 0 .1 10.3.3 15.6.3zm-15.2-36.3c-4.3 1.4-5 8.3 7.5 11.2-4.1.5-14-1.3-14.3-8.1-.4-5.4 6.9-6 6.8-3.1zm-12.2 11.7c11.6.7 23.8 6.5 23.8 6.5 1.4 3-2.1 12.5-5.2 13.3-2.8.9-16.7-.6-18.8-6.5 8.3 2.3 9-.9 9-.9s-7.6.1-10.7-5.2c6 2.1 8.8-.1 8.8-.1s-11.6-4.4-11.9-7.1h5zm-11.6 12.9l.3-2.3c.8 27.7 20.9 32 20.9 45.8 0 .4-.1.9-.1 1.3h-3.5c.2-2.5-.3-5-2.2-7.5-13.1-17.5-13.7-21.2-13.7-21.2 1.1 13.3 9.6 14.9 11.6 28.8h-5.4c-2.1-10.4-12.5-14.4-7.9-44.9zm1.2 44.8H-55l5.2-8.3c2.6 3.4 4 6 4.5 8.3zm-15.7 0h-6.4c9.5-17.7 4.2-46.5 12.4-55.3-5.7 10.3 3.3 35-6 55.3zm2.6-66.6c-3.8 3.4-21.6 19-16.1 61.4 5.6-9.1.8-43.8 17.4-56.4-11.5 14-5.4 39.1-13.8 61.7H-79c2.2-18.3-7.9-45.7 20.6-66.7zM-91 1792h-3.8c2.6-3.8 4.7-8.3 6.8-13.4.2 3.1-.6 8.4-3 13.4zm18.3-73c3.4 3.8-17.8 13.3-28.3 9.7 17.5.2 24.8-13.5 28.3-9.7zm-24.2 13.9c12 0 19.1-3.9 22.1-7-1.2 8.6-10.4 11.6-22 11.6s-22.4-12.9-31.3-4.2c15.6-1.8 17.9 14.7 35.6 9.1-15.2 16.4-26.4-12.5-43.9-4.1 8.9-21.3 27.6-5.4 39.5-5.4zm-86.8 26.4c9.1-13.4 16.2 5.1 31.3-5.2 5 7.9-7.3 12.9-14.5 8.5-7.2-4.5-13-4.7-16.8-3.3zm44.2 9.7c-6.7 5.2-23.7 10.4-23.5-.7 17.7 3.4 21.8-21.7 37.6-14.3-3.9.6-7.5 9.9-14.1 15zm49.5-5.8c0 9.5-1.3 16.5-3.5 21.6l-25.6 7.2h-22.8l51.9-28.8zm96.7-94.1c-2 3.1 3.1 5.8 8.4 3 4.7-2.3 7.9-5.4 15.1-5.4 4.7 0 11.2 8.1 14.8 2.2 2.5 3.5-.9 7.6-6.5 7.6-5.7 0-8.2-4.6-15.1-4.6-7 0-8.4 4.3-17.7 4.3s-11.2-16.7 1.1-18.1c-6.8 5.8-4.3 11-.1 11zm76.1-86c-3.9 16.9-16.3 11.5-27.1 26.1s4.7 40-25.1 39.7c25-6.3 9.3-24.5 21.1-42.2 6.8-10.2 24.8-9.8 31.1-23.6zm-69.1 38.5s-3.1 12 3.8 18.7c-14.6-5.2-3.8-18.7-3.8-18.7zm68.6-29.1c-3.8 12.4-11.1 10.4-19 22-9.1 10.1 3 39.4-22.2 38.7 20-6 9-26.5 18.6-40.7 5.3-8.1 17.2-10.1 22.6-20zm-4 67.2c-3.1 2-11.4 11.1-16.5 13.5 0-5.9 12.4-25.6 33.2-17.1-2.3 2.1-11.1-.2-16.7 3.6zm-15.2 26.1c-9.4-2.8-15.5 4.6-17.1 1.3-.8-4.4 12.5-4.4 17.1-1.3zm9.4-5.7c-.3-29.2 38-14 42.5-34.5 3.2 21.4-34.4 20.1-42.5 34.5zm-10.4 18.2c-14.8-6.4-22.5 2.7-23.2-1.6-1-6.4 18.2-5.8 23.2 1.6zm-43-108.3c9.9 20.2-25 25.7-10.1 50.2-22.1-18.1 11.3-34.4 10.1-50.2zM.3 1743.7c.9-.5 1.5-2.8 1.9-3.5 3.8-2.5 8.6-3.9 10.5-5.4-.3 4.2-8.6 9.7-12.4 8.9zm-35.4-65.3c-5.8-1.2-12.6 4.6-19.4 7.8 6.3 9.1 21 9.8 26.8 13 1.4-2 5.7-18.2-7.4-20.8zm-6.7 14.8c-6-2.3-3.4-13.8 4.5-12.1-.5.8-4.2 7.9-4.5 12.1zm4.5 1.3c2.6-2.8 4.5-9.6 4.9-10.7 5.8 4.5.1 12.6-4.9 10.7zm-1.2-22.2c-6.5 0-20.3 14-23.5.3 0 0 2.1.7 4.7.5 2.3-8 15.3-15.3 23.2-13.1-9.3.7-16.4 7.2-15.3 11.1 1.4 5 9.5-2.7 16.4-2.7 8.1 0 12.6 8.3 18.9.7-.4 16.4-18.6 3.2-24.4 3.2zm22.6-86.2l6.9 18.1s-6.3 7.4-6.3 20.5c0 25.7 21.1 28.1 19.6 17.8-14.8 6.8-15.5-14.7-11.5-19.3 0 0-2.7 11.2 7.2 15.3-13.2-21.9 12.8-30.2 12.8-47.7 0-14.5-9-19.3-8.7-32.7.2-16.1 23.9-20.3 24.1-14 .2 4.4-17.2 4.9-17.5 21.5-.2 15.5 17.1 19.3 16.7 34.4-.3 9.9-18 19-6.9 37.6l25.2-71.1-19.5 21.8c-6.1-7.7-11-8.4-11-22.2 0-13.8 15.4-15.8 15.4-22.3 0-5.2-7.7-5.9-13.3-6.1-8.7-.4-24.1 7.2-24.1 23.2s10.9 24.3.1 39.4l-9.2-14.2zm22.8-3.5c6.9 21.8-15.8 27.6-17.7 41.9-1.4-17.3 20.3-25.5 17.7-41.9zm-57.8 126.7l-.8-1.2c-1.6-2.5-.8-8.1-.8-8.1-3.6-.2-9.4 6.8-9.4 6.8s-2.5-8.3 6.3-11.9c-.7-1.3-.2-2.7-.2-2.7 7.2 7.3 19.8 6.9 23.4 9.4.2.1-21.5-3.7-18.5 7.7zm-46.2-108.8l15.8 7.6c.5 5.4 2.7 11.2 8.3 17.7 6.1 7.2 22.9 9.4 23.6 26.2 5.1-5.1 1.1-17.1-10.3-23.8-42.6-25 29.1-64.2-17-78.2 39.8-2.7 22.8 33.3 26 47.7 4.4 19.9 22.8 15.1 32.6 27.5l-10.8-60.4-10.3 42.2c-13.5-2-8.7-21.2-8.4-38.6.6-33-55.8-23.6-48.2-4.9 2.9 7.1 22-8.7 22.1 7.9.1 11.4-7 21.2-7.8 32.4l-15.6-3.3zm5.4-39.8c-3.8-4.7 15.2-10 18.7 1.8-9.5-6.2-17 .4-18.7-1.8zm71.5 84c8.4-30.2-56.4-14-37.7-49.5-7.1 35.1 51.3 16.9 37.7 49.5zm66.7 64.4c33.7-11.4 44 44.5 63.7 44.1 12-.3 16.7-8.1 25.4-10.1-6.1 3.9-14.6 14.5-25.4 14.8-29.8.6-29-46.1-63.7-48.8zm-76.2-72.9c0-1.4-.5-2.7-1.5-3.5-6.3-6.2-24.6-4.9-33-13.6-19.3-19.3 17.8-35.6 5.1-63 23.2 19.1-27.2 53.2 6.5 64.6 14.1 4.8 18.9 6.6 22.4 9.2 2.3 1.7 3.7 4.5 3.7 7.6 0 5.4-4.3 9.7-9.7 9.7-2.9 0-5.5-1.3-7.2-3.2-3.7-4-2.5-11.2-5.2-13.3 4.5-.9 6.9 6.9 11.4 9.7.8.5 1.6.8 2.6.8 2.7-.1 4.9-2.3 4.9-5zm-53 14.1c3.4 8.2 13.1 11 19.2 11.2-12.7 16.1-22.3-3.8-19.2-11.2zm85.6 98.5c1.6-1 3.4-3.1 4.1-4.3 5.5-2.1 8.3-3.1 8.6-4.1 1.3 3.5-6.1 10.2-12.7 8.4zm47.9-71.7c-3.7 2-5.8 6.4-7.2 4.1-.6-1.1 2.4-4.7 7.2-4.1zm-11.2 7.3c-6.7-3.1-13.6-9-19.3-7.8-13.3 2.6-8.8 18.8-7.5 20.8 5.9-3.2 20.5-3.9 26.8-13zm-12.6 6.7s-4-11.2-4.5-12.2c7.9-1.6 10.4 9.9 4.5 12.2zm-9.5-9.3c.5 1 2.3 7.9 4.9 10.7-4.9 1.9-10.7-6.2-4.9-10.7zm51.2-36.6c-5.9 6.5-5.5 11.9-14.4 17.5 11.5 4.9 11.9-10.3 23.4-13.7 7.9-2.3 13.8 7.2 25.1 2s7.2-26.1 12.7-35.3c5.5-9.2 20.6-17.8 31.3.8 0 0-18.1-17.8-26.5 3.4 5.9-4.9 14.6-6.5 14.6-1.7-4.6 1.5-12.1 4.1-12.3 20.8-.2 19.3-8.1 23.5-14.1 27.4-8.7 5.8-29.2 5.5-33.6 18.6l70.6-31.5h-21.6c2.8-15.8-3.4-39.4 26.1-33.8 3.6-7.9-21-33-42.3-4.3l-2-7.2c-4.5 38.3-24.7 23.5-37 37zM106 1626c3.6 6.2-7.2 17.5-7.2 17.5 2.8 1 2.7 5.1-.8 6.1-6.5 1.9-11.5-5.4-19.7-3.2 1.7-2.9 18.7-2.3 27.7-20.4zm-199.4 35.3c-.1-12.5 6.2-19.4-5.2-27.2 22.2 4.8.3 37.5 30.1 37-6.8 9.8-24.8 5.3-24.9-9.8zm142.3-65.8v-15l4 13.3c8.9-2.6 20.3-7.2 20-15.3-.3-8.1-8.8-11.6-9-16.6-.2-7.5 25.4-3.1 25.4 20.7 0 16.9-5.9 22-5.9 22l21.6-11.2-37.6 48.6s-11.5 17.7-19.3 14.5c7.3-1.4 16.7-13.3 16.7-23.8 0-14 11.1-22.9 14.4-27.3 3.5-4.7 20.5-36.8-9.6-44.5 19.6 20 2.2 29.2-14.4 35.5-15.8 6-11.1 30.4-15.9 38.8-5.1 8.6-19 11.8-21.6 11.7 4.6-8.1 14.2-10.7 17.7-20 3.8-9.6-1-23.9 13.5-31.4z"/></svg>